<?xml version="1.0" encoding="utf-8"?>
<!-- Generator: Adobe Illustrator 23.0.0, SVG Export Plug-In . SVG Version: 6.00 Build 0)  -->
<svg version="1.1" id="レイヤー_1" xmlns="http://www.w3.org/2000/svg" xmlns:xlink="http://www.w3.org/1999/xlink" x="0px"
	 y="0px" viewBox="0 0 128 128" style="enable-background:new 0 0 128 128;" xml:space="preserve">
<style type="text/css">
	.st0{fill:#040000;stroke:#FFFFFF;stroke-width:1.8794;stroke-miterlimit:10;}
	.st1{fill:#30A0D2;}
	.st2{fill:none;}
	.st3{fill:#FFFFFF;}
	.st4{fill:none;stroke:#FFFFFF;stroke-width:3.4028;stroke-miterlimit:10;}
	.st5{fill:none;stroke:#FFFFFF;stroke-width:3.2181;stroke-miterlimit:10;}
	.st6{fill:#FFFFFF;stroke:#FFFFFF;stroke-width:1.8296;stroke-miterlimit:10;}
</style>
<g>
	<g>
		<polygon class="st0" points="66,58.9 66,58.9 66,58.9 66,58.9 		"/>
		<ellipse class="st1" cx="74.3" cy="50.4" rx="20.5" ry="23.4"/>
		<ellipse class="st1" cx="44.4" cy="60.4" rx="21.5" ry="26"/>
		<ellipse class="st1" cx="99.4" cy="73.2" rx="22.1" ry="27.1"/>
		<ellipse class="st1" cx="28.3" cy="77.6" rx="21" ry="22.8"/>
		<rect x="25.9" y="85.6" class="st1" width="75.5" height="14.8"/>
		<ellipse class="st1" cx="63.4" cy="73" rx="20" ry="22.6"/>
		<g>
			<rect x="13.2" y="65.2" class="st2" width="105.8" height="22.6"/>
			<path class="st3" d="M14,86.5c-0.1-1.3-0.1-2.3-0.2-3.2c1.2,0.8,2.4,1.1,3.4,1.1c0.4,0,0.8-0.1,1.1-0.2c0.4-0.2,0.6-0.4,0.8-0.7
				c0.2-0.3,0.3-0.6,0.3-1c0-0.3,0-0.5-0.1-0.8c-0.1-0.3-0.3-0.6-0.6-1c-0.4-0.5-1-1.2-1.9-2.3c-0.4-0.5-0.8-0.9-0.9-1.1
				c-0.4-0.5-0.7-0.9-0.9-1.3c-0.2-0.4-0.3-0.8-0.4-1.2c-0.1-0.4-0.1-0.8-0.1-1.2c0-0.8,0.2-1.5,0.5-2.2c0.3-0.7,0.8-1.2,1.5-1.6
				c0.7-0.4,1.5-0.6,2.5-0.6c0.9,0,1.9,0.1,3.1,0.4c0,0.9,0.1,1.9,0.2,3c-1-0.5-1.9-0.8-2.7-0.8c-0.6,0-1.1,0.2-1.5,0.6
				c-0.4,0.4-0.6,0.8-0.6,1.3c0,0.1,0,0.3,0,0.4c0,0.1,0.1,0.3,0.1,0.4c0.1,0.1,0.2,0.3,0.3,0.5c0.1,0.2,0.3,0.5,0.6,0.8
				c0.3,0.3,0.5,0.5,0.7,0.7l1.2,1.4c0.3,0.3,0.6,0.7,0.8,1s0.4,0.6,0.6,0.9c0.2,0.3,0.3,0.6,0.4,0.8s0.2,0.5,0.2,0.8
				c0,0.3,0.1,0.6,0.1,0.9c0,0.7-0.1,1.4-0.4,2c-0.2,0.6-0.6,1.2-1.1,1.6c-0.5,0.4-1,0.7-1.5,0.8c-0.6,0.2-1.1,0.2-1.8,0.2
				c-0.4,0-0.9,0-1.4-0.1C15.5,87,14.8,86.8,14,86.5z"/>
			<path class="st3" d="M30.2,69.2c0.9,0,1.9,0.2,2.7,0.5c0.9,0.3,1.6,0.9,2.3,1.7c0.7,0.8,1.2,1.7,1.5,2.7s0.5,2.3,0.5,3.7
				c0,1.3-0.2,2.6-0.5,3.7s-0.8,2.2-1.5,3.1c-0.7,0.9-1.5,1.5-2.5,1.9c-1,0.4-2,0.6-3.1,0.6c-1,0-2-0.2-2.9-0.6
				c-0.9-0.4-1.7-1-2.4-1.8C23.7,84,23.2,83.1,23,82s-0.4-2.2-0.4-3.4c0-1.3,0.2-2.6,0.5-3.9c0.4-1.2,0.9-2.2,1.6-3.1
				c0.7-0.8,1.5-1.4,2.5-1.8C28.1,69.5,29.1,69.2,30.2,69.2z M30.1,72c-1,0-1.8,0.3-2.5,0.9c-0.7,0.6-1.2,1.4-1.6,2.4
				c-0.4,1-0.5,2.1-0.5,3.3c0,1.1,0.2,2.1,0.5,3c0.3,0.9,0.9,1.6,1.6,2.1s1.5,0.7,2.3,0.7c0.6,0,1.2-0.1,1.8-0.4s1.1-0.7,1.5-1.3
				c0.4-0.6,0.7-1.3,0.9-2.1c0.2-0.8,0.3-1.7,0.3-2.6c0-0.8-0.1-1.6-0.3-2.4s-0.5-1.4-0.9-2c-0.4-0.6-0.9-1-1.4-1.2
				C31.3,72.1,30.7,72,30.1,72z"/>
			<path class="st3" d="M37.6,86.9c0.2-2.5,0.3-5.4,0.4-8.7c0.1-3.3,0.1-6.2,0.1-8.6c0.8,0,1.4,0,1.9,0c0.6,0,1.1,0,1.6,0
				c0.5,0,1.1,0,1.7,0c0.7,0,1.4,0.1,2,0.2s1.1,0.4,1.5,0.8c0.5,0.4,0.8,0.9,1,1.5s0.3,1.2,0.3,2c0,0.5,0,0.9-0.1,1.4
				c-0.1,0.4-0.2,0.8-0.4,1.2c-0.2,0.4-0.4,0.7-0.6,1c-0.2,0.3-0.4,0.5-0.7,0.7c-0.2,0.2-0.5,0.3-0.7,0.4s-0.7,0.3-1.1,0.4l0.6,1.7
				c0.2,0.5,0.6,1.5,1.2,2.9l1,2.3c0.1,0.1,0.2,0.5,0.5,1.2c-0.8,0-1.3,0-1.5,0c-0.3,0-0.8,0-1.6,0l-1.1-3.4
				c-0.2-0.5-0.4-1.1-0.7-1.8l-1.2-3.1c-0.1-0.3-0.3-0.7-0.5-1.3c0.4,0.1,0.8,0.2,1.2,0.2c0.5,0,1-0.1,1.5-0.4
				c0.5-0.2,0.8-0.6,1-1.1s0.4-1,0.4-1.6c0-0.4-0.1-0.7-0.2-1c-0.1-0.3-0.3-0.6-0.5-0.8c-0.2-0.2-0.5-0.3-0.9-0.4
				c-0.3-0.1-0.7-0.1-1-0.1c-0.2,0-0.5,0-0.8,0c-0.3,0-0.7,0-1.2,0l-0.2,5.2l-0.2,9.5l-1.5,0C38.8,86.9,38.4,86.9,37.6,86.9z"/>
			<path class="st3" d="M46.8,86.9c0.7-1.6,1.4-3.5,2.3-5.8l2.5-6.4c0.8-2,1.4-3.7,1.9-5.2c0.8,0,1.4,0,1.8,0c0.6,0,1.2,0,1.8,0
				l1.4,5.2l3,10.8l0.4,1.4l-1.4,0c-0.3,0-0.9,0-1.7,0c-0.2-0.8-0.4-1.8-0.7-3.1c-0.3-1.3-0.6-2.3-0.8-3.1h-5
				c-0.7,2-1.5,4.1-2.2,6.2l-1.6,0C48.1,86.9,47.6,86.9,46.8,86.9z M53,78.1h3.7l-1.5-5.9l-0.8,2.1L53,78.1z"/>
			<path class="st3" d="M61.8,86.9c0.1-1.7,0.2-3.1,0.2-4.3c0.1-1.7,0.2-4.2,0.3-7.3c0.1-2.2,0.1-3.7,0.1-4.6v-1.2
				c0.8,0,1.3,0,1.6,0c0.2,0,0.7,0,1.5,0l-0.3,6.9l-0.3,8.2l0,2.3l-1.5,0C63.1,86.9,62.6,86.9,61.8,86.9z M65.2,77.7l2.2-3.5l2-3.3
				c0.1-0.2,0.4-0.7,0.7-1.3l1.7,0c0.1,0,0.6,0,1.6,0L69,76.4l-0.7,1.2l0.6,1.1c0.1,0.2,0.7,1.3,1.9,3.3l2.8,4.8l-1.7,0
				c-0.3,0-0.9,0-1.9,0l-0.6-1.3c-0.1-0.2-0.3-0.6-0.6-1.2l-2.6-4.9L65.2,77.7z"/>
			<path class="st3" d="M73.9,69.6c0.7,0,1.2,0,1.5,0c0.3,0,0.8,0,1.4,0l-0.5,10.3c0,0.1,0,0.2,0,0.4c0,1.1,0.1,2,0.4,2.6
				c0.2,0.6,0.6,1,1.1,1.3s1,0.4,1.6,0.4c0.4,0,0.8-0.1,1.1-0.2c0.3-0.1,0.5-0.2,0.8-0.4c0.2-0.2,0.4-0.3,0.5-0.5
				c0.2-0.2,0.3-0.5,0.4-0.9c0.1-0.3,0.2-0.7,0.3-1.1c0.1-0.6,0.2-1.6,0.2-3.1l0.2-4.4c0-1.3,0.1-2.7,0.1-4.3c0.7,0,1.3,0,1.6,0
				l1.4,0l-0.3,6.1l-0.2,4.9c-0.1,1.1-0.1,2-0.3,2.5c-0.1,0.5-0.2,0.9-0.4,1.3c-0.2,0.4-0.4,0.7-0.6,1c-0.3,0.4-0.7,0.7-1.1,0.9
				c-0.5,0.3-1,0.5-1.5,0.6c-0.7,0.2-1.5,0.3-2.3,0.3c-0.8,0-1.6-0.1-2.3-0.3c-0.6-0.2-1.1-0.4-1.6-0.8c-0.5-0.4-0.9-0.8-1.2-1.2
				c-0.2-0.4-0.4-0.8-0.6-1.3c-0.2-0.6-0.2-1.3-0.2-2c0-0.3,0-0.6,0-1c0-0.4,0-0.9,0.1-1.6l0.1-1.8c0-0.6,0.1-1.4,0.1-2.5l0.1-2.8
				C73.9,71.3,73.9,70.5,73.9,69.6z"/>
			<path class="st3" d="M86.4,86.9l0.2-2.9l0.6-10.1l0.2-4.4c0.9,0,1.6,0,2,0c0.3,0,0.9,0,1.8,0c0.1,0.7,0.2,1.2,0.2,1.5
				c0.1,0.3,0.2,0.8,0.3,1.4s0.3,1.4,0.6,2.3c0.3,1.4,0.6,2.7,0.9,4.1l0.7,3.6l1.3-4.7l1.9-6.1c0.1-0.2,0.1-0.4,0.2-0.7
				c0.1-0.3,0.2-0.7,0.3-1.4c0.8,0,1.4,0,2,0c0.4,0,1,0,1.9,0c-0.1,2.4-0.2,5.1-0.2,8.1c0,3-0.1,5.2-0.1,6.6c0,0.7,0,1.6,0,2.6
				c-0.6,0-1.1,0-1.3,0c-0.3,0-0.8,0-1.3,0c0-0.9,0.1-1.6,0.1-2.1l0.2-7.6c0-1.1,0-2.1,0-3.2l0-1l-3.5,12.4l-0.4,1.5
				c-0.6,0-1,0-1.3,0c-0.3,0-0.7,0-1.4,0l-1.6-7.8c-0.1-0.3-0.2-0.9-0.4-1.8l-0.6-2.6c-0.1-0.2-0.1-0.4-0.1-0.6c0-0.2-0.1-0.5-0.2-1
				l-0.1,1.6c0,0.5-0.1,1.4-0.1,2.6l-0.4,7.9c0,0.4,0,1,0,1.7l-1.2,0C87.4,86.9,87,86.9,86.4,86.9z"/>
			<path class="st3" d="M109.8,69.2c0.9,0,1.9,0.2,2.7,0.5c0.9,0.3,1.6,0.9,2.3,1.7s1.2,1.7,1.5,2.7c0.3,1,0.5,2.3,0.5,3.7
				c0,1.3-0.2,2.6-0.5,3.7s-0.8,2.2-1.5,3.1c-0.7,0.9-1.5,1.5-2.5,1.9c-1,0.4-2,0.6-3.1,0.6c-1,0-2-0.2-2.9-0.6
				c-0.9-0.4-1.7-1-2.4-1.8c-0.7-0.8-1.2-1.7-1.5-2.8s-0.4-2.2-0.4-3.4c0-1.3,0.2-2.6,0.5-3.9c0.4-1.2,0.9-2.2,1.6-3.1
				c0.7-0.8,1.5-1.4,2.5-1.8C107.7,69.5,108.7,69.2,109.8,69.2z M109.7,72c-1,0-1.8,0.3-2.5,0.9c-0.7,0.6-1.2,1.4-1.6,2.4
				c-0.4,1-0.5,2.1-0.5,3.3c0,1.1,0.2,2.1,0.5,3s0.9,1.6,1.6,2.1c0.7,0.5,1.5,0.7,2.3,0.7c0.6,0,1.2-0.1,1.8-0.4
				c0.6-0.3,1.1-0.7,1.5-1.3c0.4-0.6,0.7-1.3,0.9-2.1c0.2-0.8,0.3-1.7,0.3-2.6c0-0.8-0.1-1.6-0.3-2.4s-0.5-1.4-0.9-2
				c-0.4-0.6-0.9-1-1.4-1.2C110.9,72.1,110.3,72,109.7,72z"/>
		</g>
	</g>
	<g>
		<path class="st4" d="M68.8,42.7c0.5-0.1,6-0.7,10.9,3.9c3.3,3.2,5.1,7.6,4.5,11.6"/>
		<path class="st5" d="M68.5,49.9c0.3-0.1,4-1.2,7.1,1.8c2.1,2.1,3.1,5.3,2.6,8.5"/>
		<ellipse transform="matrix(0.2539 -0.9672 0.9672 0.2539 -4.0937 112.1396)" class="st6" cx="70.6" cy="58.7" rx="2.1" ry="1.9"/>
	</g>
</g>
<g>
</g>
<g>
</g>
<g>
</g>
<g>
</g>
<g>
</g>
<g>
</g>
<g>
</g>
<g>
</g>
<g>
</g>
<g>
</g>
<g>
</g>
<g>
</g>
<g>
</g>
<g>
</g>
<g>
</g>
</svg>
